# xmcd
#
# Track frame offsets:
# 150
# 22172
# 44743
# 69936
# 102178
# 136336
# 168274
# 193438
# 235407
# 272667
# 295985
#
# Disc length: 4402 seconds
#
# Revision: 0
# Processed by: cddbd v1.5.2PL0 Copyright (c) Steve Scherf et al.
# Submitted via: Audion 3.0.2 (http://www.panic.com/audion/)
#
DISCID=a911300b
DTITLE=Vol - The ReCycle Session
DYEAR=1900
DGENRE=
TTITLE0=Jewels of Love
TTITLE1=Soulboy collective Version
TTITLE2=Beamish and Fly melt down
TTITLE3=Stumpfsinn
TTITLE4=Getaway
TTITLE5=Atabaque
TTITLE6=Hurt me, Morgan Geist Remix
TTITLE7=Miles from Home, Underdog Remix
TTITLE8=Jeune Amour
TTITLE9=The Killer´s Waltz
TTITLE10=En Velo
EXTD=
EXTT0=
EXTT1=
EXTT2=
EXTT3=
EXTT4=
EXTT5=
EXTT6=
EXTT7=
EXTT8=
EXTT9=
EXTT10=
PLAYORDER=
